<?xml version="1.0" encoding="UTF-8" standalone="no"?>
<!-- Created with Inkscape (http://www.inkscape.org/) -->

<svg
   xmlns:dc="http://purl.org/dc/elements/1.1/"
   xmlns:cc="http://creativecommons.org/ns#"
   xmlns:rdf="http://www.w3.org/1999/02/22-rdf-syntax-ns#"
   xmlns:svg="http://www.w3.org/2000/svg"
   xmlns="http://www.w3.org/2000/svg"
   xmlns:sodipodi="http://sodipodi.sourceforge.net/DTD/sodipodi-0.dtd"
   xmlns:inkscape="http://www.inkscape.org/namespaces/inkscape"
   width="443.13553"
   height="202.14439"
   id="svg11420"
   version="1.1"
   inkscape:version="0.48.2 r9819"
   sodipodi:docname="spherical_trigonometry_Napier_right-angled.svg">
  <defs
     id="defs11422" />
  <sodipodi:namedview
     id="base"
     pagecolor="#ffffff"
     bordercolor="#666666"
     borderopacity="1.0"
     inkscape:pageopacity="0.0"
     inkscape:pageshadow="2"
     inkscape:zoom="0.98994949"
     inkscape:cx="275.01665"
     inkscape:cy="-133.54528"
     inkscape:document-units="px"
     inkscape:current-layer="layer1"
     showgrid="false"
     fit-margin-top="0"
     fit-margin-left="0"
     fit-margin-right="0"
     fit-margin-bottom="0"
     inkscape:showpageshadow="false"
     inkscape:window-width="1280"
     inkscape:window-height="948"
     inkscape:window-x="-4"
     inkscape:window-y="-4"
     inkscape:window-maximized="1" />
  <metadata
     id="metadata11425">
    <rdf:RDF>
      <cc:Work
         rdf:about="">
        <dc:format>image/svg+xml</dc:format>
        <dc:type
           rdf:resource="http://purl.org/dc/dcmitype/StillImage" />
        <dc:title></dc:title>
      </cc:Work>
    </rdf:RDF>
  </metadata>
  <g
     inkscape:label="Layer 1"
     inkscape:groupmode="layer"
     id="layer1"
     transform="translate(-99.983349,-196.67251)">
    <g
       id="g11131"
       transform="matrix(1.2499999,0,0,1.2499999,-205.39524,177.83905)">
      <path
         id="path10138"
         d="m 598.13575,95.421464 c 0,-44.023614 -35.88639,-79.67911 -79.74754,-79.67911 -43.86116,0 -79.38506,35.655496 -79.38506,79.67911 0,44.023636 35.5239,79.679126 79.38506,79.679126 43.86115,0 79.74754,-35.65549 79.74754,-79.679126 z"
         style="fill:none;stroke:#000000;stroke-width:1.351174px;stroke-linecap:butt;stroke-linejoin:miter;stroke-miterlimit:4;stroke-opacity:1;stroke-dasharray:none"
         inkscape:connector-curvature="0" />
      <path
         id="path10140"
         d="m 518.38821,95.421464 79.74754,0"
         style="fill:none;stroke:#000000;stroke-width:1.351174px;stroke-linecap:butt;stroke-linejoin:miter;stroke-miterlimit:4;stroke-opacity:1;stroke-dasharray:none"
         inkscape:connector-curvature="0" />
      <path
         id="path10142"
         d="M 518.02571,95.785298 453.86519,142.71958"
         style="fill:none;stroke:#000000;stroke-width:1.351174px;stroke-linecap:butt;stroke-linejoin:miter;stroke-miterlimit:4;stroke-opacity:1;stroke-dasharray:none"
         inkscape:connector-curvature="0" />
      <path
         id="path10144"
         d="m 518.38821,95.785298 24.64924,75.676982"
         style="fill:none;stroke:#000000;stroke-width:1.351174px;stroke-linecap:butt;stroke-linejoin:miter;stroke-miterlimit:4;stroke-opacity:1;stroke-dasharray:none"
         inkscape:connector-curvature="0" />
      <path
         id="path10146"
         d="M 518.38821,95.785298 453.86519,48.851025"
         style="fill:none;stroke:#000000;stroke-width:1.351174px;stroke-linecap:butt;stroke-linejoin:miter;stroke-miterlimit:4;stroke-opacity:1;stroke-dasharray:none"
         inkscape:connector-curvature="0" />
      <path
         id="path10148"
         d="M 518.38821,95.421464 543.03745,19.38067"
         style="fill:none;stroke:#000000;stroke-width:1.351174px;stroke-linecap:butt;stroke-linejoin:miter;stroke-miterlimit:4;stroke-opacity:1;stroke-dasharray:none"
         inkscape:connector-curvature="0" />
      <path
         sodipodi:nodetypes="cc"
         id="path10154"
         d="m 469.40389,96.791059 5.68245,0"
         style="fill:none;stroke:#000000;stroke-width:1.01338053px;stroke-linecap:butt;stroke-linejoin:miter;stroke-miterlimit:4;stroke-opacity:1;stroke-dasharray:none"
         inkscape:connector-curvature="0" />
      <g
         transform="matrix(1.0769491,0,0,1.0769491,409.04873,48.351048)"
         id="g3974-6-5-1-3-5">
        <g
           id="text3582-5-1-9-9-5"
           style="font-size:12px;fill:none;stroke:#000000;stroke-miterlimit:4;font-family:TimesNewRomanPSMT">
          <path
             inkscape:connector-curvature="0"
             id="path4344"
             style="fill:#000000;stroke:none;font-family:SymbolMT"
             d="m 75.260788,81.227516 0,5.367188 -1.054688,0 0,-5.367188 -1.640625,0 0,-0.855469 7.757813,0 0,0.855469 -1.417969,0 0,5.367188 -1.054687,0 0,-5.367188 z" />
        </g>
        <path
           inkscape:connector-curvature="0"
           id="path3586-5-2-4-1-0"
           d="m 72.929,88.103 h 5.668"
           style="font-size:12px;fill:#000000;fill-rule:nonzero;stroke:#000000;stroke-width:0.75;stroke-miterlimit:4;font-family:TimesNewRomanPSMT" />
        <g
           id="text3588-4-6-5-9-3"
           style="font-size:12px;fill:none;stroke:#000000;stroke-miterlimit:4;font-family:TimesNewRomanPSMT">
          <path
             inkscape:connector-curvature="0"
             id="path4347"
             style="font-size:10px;fill:#000000;stroke:none"
             d="m 78.632782,94.917976 0,0.844727 -4.731445,0 c -0.0065,-0.211588 0.02767,-0.415039 0.102539,-0.610352 0.120442,-0.322264 0.313313,-0.639647 0.578613,-0.952148 0.265298,-0.312498 0.648599,-0.673826 1.149902,-1.083984 0.777992,-0.638018 1.303708,-1.143389 1.577149,-1.516114 0.273433,-0.372717 0.410152,-0.725092 0.410156,-1.057129 -4e-6,-0.348301 -0.124516,-0.642084 -0.373535,-0.881347 -0.249027,-0.239252 -0.573734,-0.358881 -0.974121,-0.358887 -0.42318,6e-6 -0.761721,0.126959 -1.015625,0.380859 -0.253908,0.253912 -0.382489,0.605475 -0.385742,1.054688 l -0.903321,-0.09277 c 0.06185,-0.673822 0.294596,-1.18733 0.698242,-1.540527 0.403645,-0.353183 0.945636,-0.529778 1.625977,-0.529785 0.686846,7e-6 1.230465,0.190437 1.630859,0.571289 0.400386,0.380866 0.600581,0.85287 0.600586,1.416016 -5e-6,0.286463 -0.0586,0.568038 -0.175781,0.844726 -0.117192,0.276697 -0.311691,0.568038 -0.583496,0.874024 -0.271814,0.305992 -0.723474,0.725914 -1.35498,1.259765 -0.527347,0.44271 -0.865888,0.743003 -1.015625,0.900879 -0.149742,0.157879 -0.27344,0.31657 -0.371094,0.476074 z" />
        </g>
      </g>
      <g
         transform="matrix(1.0769491,0,0,1.0769491,380.38456,2.0860334)"
         id="g3974-6-5-1-3-5-4">
        <g
           id="text3582-5-1-9-9-5-4"
           style="font-size:12px;fill:none;stroke:#000000;stroke-miterlimit:4;font-family:TimesNewRomanPSMT">
          <path
             inkscape:connector-curvature="0"
             id="path4332"
             style="fill:#000000;stroke:none;font-family:SymbolMT"
             d="m 75.260788,81.227516 0,5.367188 -1.054688,0 0,-5.367188 -1.640625,0 0,-0.855469 7.757813,0 0,0.855469 -1.417969,0 0,5.367188 -1.054687,0 0,-5.367188 z" />
        </g>
        <path
           inkscape:connector-curvature="0"
           id="path3586-5-2-4-1-0-9"
           d="m 72.929,88.103 h 5.668"
           style="font-size:12px;fill:#000000;fill-rule:nonzero;stroke:#000000;stroke-width:0.75;stroke-miterlimit:4;font-family:TimesNewRomanPSMT" />
        <g
           id="text3588-4-6-5-9-3-8"
           style="font-size:12px;fill:none;stroke:#000000;stroke-miterlimit:4;font-family:TimesNewRomanPSMT">
          <path
             inkscape:connector-curvature="0"
             id="path4335"
             style="font-size:10px;fill:#000000;stroke:none"
             d="m 78.632782,94.917976 0,0.844727 -4.731445,0 c -0.0065,-0.211588 0.02767,-0.415039 0.102539,-0.610352 0.120442,-0.322264 0.313313,-0.639647 0.578613,-0.952148 0.265298,-0.312498 0.648599,-0.673826 1.149902,-1.083984 0.777992,-0.638018 1.303708,-1.143389 1.577149,-1.516114 0.273433,-0.372717 0.410152,-0.725092 0.410156,-1.057129 -4e-6,-0.348301 -0.124516,-0.642084 -0.373535,-0.881347 -0.249027,-0.239252 -0.573734,-0.358881 -0.974121,-0.358887 -0.42318,6e-6 -0.761721,0.126959 -1.015625,0.380859 -0.253908,0.253912 -0.382489,0.605475 -0.385742,1.054688 l -0.903321,-0.09277 c 0.06185,-0.673822 0.294596,-1.18733 0.698242,-1.540527 0.403645,-0.353183 0.945636,-0.529778 1.625977,-0.529785 0.686846,7e-6 1.230465,0.190437 1.630859,0.571289 0.400386,0.380866 0.600581,0.85287 0.600586,1.416016 -5e-6,0.286463 -0.0586,0.568038 -0.175781,0.844726 -0.117192,0.276697 -0.311691,0.568038 -0.583496,0.874024 -0.271814,0.305992 -0.723474,0.725914 -1.35498,1.259765 -0.527347,0.44271 -0.865888,0.743003 -1.015625,0.900879 -0.149742,0.157879 -0.27344,0.31657 -0.371094,0.476074 z" />
        </g>
      </g>
      <g
         transform="matrix(1.0769491,0,0,1.0769491,462.35409,31.75598)"
         id="g3974-6-5-1-3-5-6">
        <g
           id="text3582-5-1-9-9-5-6"
           style="font-size:12px;fill:none;stroke:#000000;stroke-miterlimit:4;font-family:TimesNewRomanPSMT">
          <path
             inkscape:connector-curvature="0"
             id="path4326"
             style="fill:#000000;stroke:none;font-family:SymbolMT"
             d="m 75.260788,81.227516 0,5.367188 -1.054688,0 0,-5.367188 -1.640625,0 0,-0.855469 7.757813,0 0,0.855469 -1.417969,0 0,5.367188 -1.054687,0 0,-5.367188 z" />
        </g>
        <path
           inkscape:connector-curvature="0"
           id="path3586-5-2-4-1-0-7"
           d="m 72.929,88.103 h 5.668"
           style="font-size:12px;fill:#000000;fill-rule:nonzero;stroke:#000000;stroke-width:0.75;stroke-miterlimit:4;font-family:TimesNewRomanPSMT" />
        <g
           id="text3588-4-6-5-9-3-2"
           style="font-size:12px;fill:none;stroke:#000000;stroke-miterlimit:4;font-family:TimesNewRomanPSMT">
          <path
             inkscape:connector-curvature="0"
             id="path4329"
             style="font-size:10px;fill:#000000;stroke:none"
             d="m 78.632782,94.917976 0,0.844727 -4.731445,0 c -0.0065,-0.211588 0.02767,-0.415039 0.102539,-0.610352 0.120442,-0.322264 0.313313,-0.639647 0.578613,-0.952148 0.265298,-0.312498 0.648599,-0.673826 1.149902,-1.083984 0.777992,-0.638018 1.303708,-1.143389 1.577149,-1.516114 0.273433,-0.372717 0.410152,-0.725092 0.410156,-1.057129 -4e-6,-0.348301 -0.124516,-0.642084 -0.373535,-0.881347 -0.249027,-0.239252 -0.573734,-0.358881 -0.974121,-0.358887 -0.42318,6e-6 -0.761721,0.126959 -1.015625,0.380859 -0.253908,0.253912 -0.382489,0.605475 -0.385742,1.054688 l -0.903321,-0.09277 c 0.06185,-0.673822 0.294596,-1.18733 0.698242,-1.540527 0.403645,-0.353183 0.945636,-0.529778 1.625977,-0.529785 0.686846,7e-6 1.230465,0.190437 1.630859,0.571289 0.400386,0.380866 0.600581,0.85287 0.600586,1.416016 -5e-6,0.286463 -0.0586,0.568038 -0.175781,0.844726 -0.117192,0.276697 -0.311691,0.568038 -0.583496,0.874024 -0.271814,0.305992 -0.723474,0.725914 -1.35498,1.259765 -0.527347,0.44271 -0.865888,0.743003 -1.015625,0.900879 -0.149742,0.157879 -0.27344,0.31657 -0.371094,0.476074 z" />
        </g>
      </g>
      <path
         sodipodi:nodetypes="cc"
         id="path10154-8"
         d="m 549.88565,126.09718 5.68245,0"
         style="fill:none;stroke:#000000;stroke-width:1.01338053px;stroke-linecap:butt;stroke-linejoin:miter;stroke-miterlimit:4;stroke-opacity:1;stroke-dasharray:none"
         inkscape:connector-curvature="0" />
      <path
         sodipodi:nodetypes="cc"
         id="path10154-1"
         d="m 496.58031,142.69224 5.68245,0"
         style="fill:none;stroke:#000000;stroke-width:1.01338053px;stroke-linecap:butt;stroke-linejoin:miter;stroke-miterlimit:4;stroke-opacity:1;stroke-dasharray:none"
         inkscape:connector-curvature="0" />
      <g
         transform="translate(214.47617,1.2100618)"
         id="text10646"
         style="font-size:14.08065414px;font-style:normal;font-variant:normal;font-weight:normal;font-stretch:normal;text-align:start;line-height:125%;letter-spacing:0px;word-spacing:0px;writing-mode:lr-tb;text-anchor:start;fill:#000000;fill-opacity:1;stroke:none;font-family:Arial;-inkscape-font-specification:Arial">
        <path
           inkscape:connector-curvature="0"
           id="path4305"
           d="m 338.81157,70.576027 -1.14818,0 0,-10.079218 1.23756,0 0,3.595792 c 0.52252,-0.65544 1.18942,-0.983163 2.00071,-0.983171 0.44919,8e-6 0.87431,0.09053 1.27538,0.271575 0.40105,0.181057 0.73107,0.435444 0.99004,0.763161 0.25897,0.327729 0.46179,0.72306 0.60847,1.185992 0.14666,0.462943 0.22,0.957966 0.22001,1.485069 -1e-5,1.251311 -0.3094,2.218438 -0.92817,2.901385 -0.61878,0.682949 -1.36132,1.024422 -2.2276,1.024423 -0.86171,-10e-7 -1.53779,-0.359809 -2.02822,-1.079426 z m -0.0138,-3.705797 c -1e-5,0.87546 0.11917,1.507989 0.35751,1.897588 0.3896,0.637114 0.91671,0.95567 1.58133,0.955669 0.54085,10e-7 1.00837,-0.234905 1.40256,-0.70472 0.39418,-0.469811 0.59127,-1.169947 0.59128,-2.10041 -1e-5,-0.953373 -0.18908,-1.656947 -0.56721,-2.110723 -0.37815,-0.453765 -0.83536,-0.68065 -1.37163,-0.680657 -0.54086,7e-6 -1.00838,0.234913 -1.40257,0.704721 -0.39418,0.469818 -0.59128,1.149328 -0.59127,2.038532 z" />
      </g>
      <g
         transform="translate(214.47617,1.2100618)"
         id="text10654"
         style="font-size:14.08065414px;font-style:normal;font-variant:normal;font-weight:normal;font-stretch:normal;text-align:start;line-height:125%;letter-spacing:0px;word-spacing:0px;writing-mode:lr-tb;text-anchor:start;fill:#000000;fill-opacity:1;stroke:none;font-family:Arial;-inkscape-font-specification:Arial">
        <path
           inkscape:connector-curvature="0"
           id="path4299"
           d="m 289.6324,57.606234 c -0.45836,0.389602 -0.89953,0.664614 -1.3235,0.825038 -0.42398,0.160424 -0.8789,0.240636 -1.36475,0.240636 -0.80212,0 -1.41861,-0.195946 -1.84946,-0.587839 -0.43085,-0.391893 -0.64628,-0.892645 -0.64628,-1.502258 0,-0.357514 0.0814,-0.684091 0.24407,-0.979733 0.16272,-0.295635 0.37585,-0.532833 0.63941,-0.711595 0.26355,-0.178755 0.56033,-0.313969 0.89035,-0.405644 0.24293,-0.06417 0.60961,-0.126043 1.10005,-0.185634 0.99921,-0.119168 1.73487,-0.261257 2.20698,-0.426269 0.005,-0.169587 0.007,-0.2773 0.007,-0.323141 -10e-6,-0.504184 -0.11689,-0.859409 -0.35065,-1.065674 -0.31626,-0.27959 -0.78608,-0.419388 -1.40944,-0.419394 -0.58211,6e-6 -1.01182,0.10199 -1.28912,0.305951 -0.2773,0.203974 -0.48242,0.564928 -0.61534,1.082863 l -1.21006,-0.165008 c 0.11001,-0.517935 0.29106,-0.936183 0.54316,-1.254745 0.25209,-0.31855 0.61648,-0.56377 1.09317,-0.73566 0.47669,-0.171875 1.029,-0.257817 1.65695,-0.257824 0.62336,7e-6 1.12984,0.07334 1.51945,0.22001 0.38959,0.146681 0.67607,0.331168 0.85941,0.553463 0.18334,0.222309 0.31168,0.503051 0.38502,0.842227 0.0412,0.210849 0.0619,0.591283 0.0619,1.141303 l 0,1.650077 c -10e-6,1.150472 0.0264,1.878109 0.0791,2.182914 0.0527,0.304806 0.15697,0.597007 0.31282,0.876603 l -1.29256,0 C 289.75157,58.250222 289.66906,57.95 289.6324,57.606234 z m -0.10313,-2.763878 c -0.44919,0.183345 -1.12297,0.339185 -2.02134,0.467521 -0.50878,0.07334 -0.86859,0.155844 -1.07943,0.247512 -0.21084,0.09167 -0.37356,0.225742 -0.48815,0.402206 -0.11459,0.176469 -0.17188,0.372415 -0.17188,0.58784 0,0.330017 0.1249,0.605029 0.37471,0.825038 0.2498,0.220011 0.61533,0.330016 1.09661,0.330015 0.47668,10e-7 0.90066,-0.104274 1.27193,-0.312827 0.37127,-0.20855 0.64399,-0.493875 0.81817,-0.855977 0.13291,-0.279594 0.19938,-0.692113 0.19938,-1.237557 z" />
      </g>
      <g
         transform="translate(214.47617,1.2100618)"
         id="text10662"
         style="font-size:14.08065414px;font-style:normal;font-variant:normal;font-weight:normal;font-stretch:normal;text-align:start;line-height:125%;letter-spacing:0px;word-spacing:0px;writing-mode:lr-tb;text-anchor:start;fill:#000000;fill-opacity:1;stroke:none;font-family:Arial;-inkscape-font-specification:Arial">
        <path
           inkscape:connector-curvature="0"
           id="path4293"
           d="m 296.16985,141.32208 1.21693,0.15814 c -0.13293,0.83879 -0.47326,1.49538 -1.02099,1.96977 -0.54774,0.4744 -1.22037,0.7116 -2.0179,0.7116 -0.99922,0 -1.80249,-0.32658 -2.4098,-0.97973 -0.60732,-0.65316 -0.91098,-1.58935 -0.91098,-2.80857 0,-0.78837 0.13063,-1.47819 0.39189,-2.06947 0.26126,-0.59127 0.65888,-1.03473 1.19287,-1.33038 0.53398,-0.29563 1.11494,-0.44345 1.74289,-0.44345 0.79295,0 1.44152,0.20053 1.94572,0.60159 0.50418,0.40106 0.82732,0.97057 0.96942,1.70851 l -1.20318,0.18564 c -0.1146,-0.49044 -0.31742,-0.85941 -0.60847,-1.10693 -0.29106,-0.24751 -0.64285,-0.37126 -1.05536,-0.37127 -0.62337,1e-5 -1.12985,0.22346 -1.51945,0.67035 -0.3896,0.4469 -0.5844,1.15391 -0.5844,2.12103 0,0.98088 0.18792,1.69362 0.56378,2.13823 0.37585,0.4446 0.86628,0.6669 1.47132,0.6669 0.48585,0 0.89149,-0.14896 1.21693,-0.44689 0.32542,-0.29793 0.53168,-0.75629 0.61878,-1.37507 z" />
      </g>
      <g
         transform="translate(214.47617,1.2100618)"
         id="text10666"
         style="font-size:14.08065414px;font-style:normal;font-variant:normal;font-weight:normal;font-stretch:normal;text-align:start;line-height:125%;letter-spacing:0px;word-spacing:0px;writing-mode:lr-tb;text-anchor:start;fill:#000000;fill-opacity:1;stroke:none;font-family:Arial;-inkscape-font-specification:Arial">
        <path
           inkscape:connector-curvature="0"
           id="path4290"
           d="m 342.75602,128.40729 3.8708,-10.07922 1.43694,0 4.12519,10.07922 -1.51944,0 -1.17568,-3.05264 -4.21457,0 -1.10693,3.05264 z m 2.90826,-4.13894 3.41703,0 -1.05192,-2.79138 c -0.32086,-0.84795 -0.5592,-1.54465 -0.71504,-2.0901 -0.12834,0.64629 -0.30939,1.28798 -0.54315,1.92509 z" />
      </g>
      <g
         transform="translate(214.47617,1.2100618)"
         id="text10670"
         style="font-size:14.08065414px;font-style:normal;font-variant:normal;font-weight:normal;font-stretch:normal;text-align:start;line-height:125%;letter-spacing:0px;word-spacing:0px;writing-mode:lr-tb;text-anchor:start;fill:#000000;fill-opacity:1;stroke:none;font-family:Arial;-inkscape-font-specification:Arial">
        <path
           inkscape:connector-curvature="0"
           id="path4287"
           d="m 262.84419,100.24598 0,-10.079219 3.78143,0 c 0.77003,1e-5 1.38766,0.101994 1.8529,0.305952 0.46522,0.203977 0.82961,0.51795 1.09317,0.941919 0.26355,0.423986 0.39533,0.867444 0.39534,1.330374 -1e-5,0.43086 -0.11689,0.836504 -0.35065,1.216931 -0.23376,0.380441 -0.5867,0.687538 -1.05879,0.921293 0.6096,0.178764 1.07827,0.483569 1.406,0.914418 0.32771,0.430857 0.49157,0.93963 0.49158,1.526321 -1e-5,0.472107 -0.0997,0.910981 -0.29907,1.316623 -0.1994,0.405645 -0.44576,0.718472 -0.7391,0.938481 -0.29335,0.220011 -0.66118,0.386164 -1.10349,0.498457 -0.44232,0.1123 -0.98432,0.16845 -1.62601,0.16845 z m 1.33382,-5.844022 2.17947,0 c 0.59128,6e-6 1.01525,-0.03895 1.27194,-0.116881 0.33917,-0.100832 0.59471,-0.268131 0.7666,-0.501898 0.17187,-0.233754 0.25781,-0.527101 0.25782,-0.880041 -10e-6,-0.334591 -0.0802,-0.629084 -0.24064,-0.883478 -0.16043,-0.254379 -0.3896,-0.428553 -0.68753,-0.522525 -0.29793,-0.09395 -0.809,-0.140935 -1.53319,-0.140944 l -2.01447,0 z m 0,4.654591 2.50949,0 c 0.43085,10e-7 0.73336,-0.01604 0.90754,-0.04813 0.30709,-0.055 0.56377,-0.146672 0.77004,-0.275013 0.20625,-0.128338 0.37584,-0.315117 0.50877,-0.560338 0.13292,-0.245218 0.19938,-0.528252 0.19938,-0.849102 0,-0.375848 -0.0963,-0.702425 -0.28876,-0.979733 -0.19252,-0.277301 -0.45951,-0.472101 -0.80097,-0.584403 -0.34148,-0.112292 -0.83307,-0.16844 -1.47476,-0.168445 l -2.33073,0 z" />
      </g>
    </g>
    <g
       id="g11093"
       transform="matrix(1.2499999,0,0,1.2499999,-973.3546,-70.211706)">
      <path
         d="M 906.21047,365.01744"
         id="path6367-4-6-1"
         inkscape:connector-curvature="0"
         style="font-size:12px;fill:none;stroke:#000000;stroke-width:1.13672352;stroke-miterlimit:4;font-family:TimesNewRomanPSMT" />
      <path
         d="M 906.21047,365.01744"
         id="path6369-5-3-4"
         inkscape:connector-curvature="0"
         style="font-size:12px;fill:none;stroke:#000000;stroke-width:1.13672352;stroke-miterlimit:4;font-family:TimesNewRomanPSMT" />
      <path
         d="M 917.05254,366.35534"
         id="path6375-8-8-3"
         inkscape:connector-curvature="0"
         style="font-size:12px;fill:none;stroke:#000000;stroke-width:1.13672352;stroke-miterlimit:4;font-family:TimesNewRomanPSMT" />
      <path
         d="M 1004.4381,310.3217"
         id="path6377-8-7-1"
         inkscape:connector-curvature="0"
         style="font-size:12px;fill:none;stroke:#000000;stroke-width:1.13672352;stroke-miterlimit:4;font-family:TimesNewRomanPSMT" />
      <path
         d="m 939.5915,214.46978 c 44.37994,0 80.3584,35.85907 80.3584,80.09353 0,44.23217 -35.97846,80.09124 -80.3584,80.09124"
         id="path6461-2-6-0"
         inkscape:connector-curvature="0"
         style="font-size:12px;fill:none;stroke:#000000;stroke-width:1.13672352;stroke-miterlimit:4;font-family:TimesNewRomanPSMT" />
      <path
         d="m 859.23879,294.56331 c 0,-44.23446 35.97502,-80.09353 80.35271,-80.09353"
         id="path6463-7-1-4"
         inkscape:connector-curvature="0"
         style="font-size:12px;fill:none;stroke:#000000;stroke-width:1.13672352;stroke-miterlimit:4;font-family:TimesNewRomanPSMT" />
      <path
         d="m 939.5915,374.65455 c -44.37769,0 -80.35271,-35.85907 -80.35271,-80.09124"
         id="path6465-0-7-0"
         inkscape:connector-curvature="0"
         style="font-size:12px;fill:none;stroke:#000000;stroke-width:1.13672352;stroke-miterlimit:4;font-family:TimesNewRomanPSMT" />
      <path
         d="M 914.08797,303.85602"
         id="path6467-3-2-7"
         inkscape:connector-curvature="0"
         style="font-size:12px;fill:none;stroke:#000000;stroke-width:1.13672352;stroke-miterlimit:4;font-family:TimesNewRomanPSMT" />
      <path
         d="M 914.01863,306.02374"
         id="path6469-1-3-9"
         inkscape:connector-curvature="0"
         style="font-size:12px;fill:none;stroke:#000000;stroke-width:1.13672352;stroke-miterlimit:4;font-family:TimesNewRomanPSMT" />
      <path
         d="M 914.21869,307.26391"
         id="path6471-3-7-0"
         inkscape:connector-curvature="0"
         style="font-size:12px;fill:none;stroke:#000000;stroke-width:1.13672352;stroke-miterlimit:4;font-family:TimesNewRomanPSMT" />
      <path
         style="font-size:12px;fill:none;stroke:#000000;stroke-width:1.13672352;stroke-miterlimit:4;stroke-dasharray:4.54689394, 2.27344698;font-family:TimesNewRomanPSMT"
         d="M 939.59491,294.56217"
         id="path6473-3-8-8"
         inkscape:connector-curvature="0" />
      <path
         style="font-size:12px;fill:#1eaac6;fill-rule:nonzero;stroke:none;font-family:TimesNewRomanPSMT"
         d="M 932.43241,249.30125"
         id="path6475-7-5-1"
         inkscape:connector-curvature="0" />
      <path
         d="M 928.90971,277.52041"
         id="path6477-0-8-4"
         inkscape:connector-curvature="0"
         style="font-size:12px;fill:none;stroke:#000000;stroke-width:1.13672352;stroke-miterlimit:4;font-family:TimesNewRomanPSMT" />
      <path
         style="font-size:12px;fill:none;stroke:#000000;stroke-width:0.85254264;stroke-miterlimit:4;font-family:TimesNewRomanPSMT"
         d="M 939.67902,276.48145"
         id="path6479-9-5-0"
         inkscape:connector-curvature="0" />
      <path
         style="font-size:12px;fill:none;stroke:#000000;stroke-width:0.85254264;stroke-miterlimit:4;font-family:TimesNewRomanPSMT"
         d="M 930.7853,273.93974"
         id="path6481-5-8-7"
         inkscape:connector-curvature="0" />
      <path
         d="M 859.23879,294.56331 1018.4517,292.7957"
         id="path6487-3-3-5"
         inkscape:connector-curvature="0"
         style="font-size:12px;fill:none;stroke:#000000;stroke-width:1.13672352;stroke-miterlimit:4;font-family:TimesNewRomanPSMT" />
      <path
         sodipodi:nodetypes="ccc"
         d="m 941.13744,226.9726 c -2.72927,1.54709 -51.71182,41.48131 -59.02437,92.89872 19.74205,3.79097 76.12355,2.42691 91.1283,1.97222"
         id="path6489-7-1-3"
         inkscape:connector-curvature="0"
         style="font-size:12px;fill:none;stroke:#000000;stroke-width:1.13672352;stroke-miterlimit:4;font-family:TimesNewRomanPSMT" />
      <path
         sodipodi:nodetypes="cc"
         d="m 940.54374,227.52472 c 31.35036,40.6091 33.28521,67.27253 33.47584,94.99435"
         id="path6491-8-0-8"
         inkscape:connector-curvature="0"
         style="font-size:12px;fill:none;stroke:#000000;stroke-width:1.52255487;stroke-miterlimit:4;font-family:TimesNewRomanPSMT" />
      <path
         inkscape:connector-curvature="0"
         id="path11211"
         d="m 966.82043,321.464 0,-6.10876 6.43029,0"
         style="fill:none;stroke:#000000;stroke-width:0.90937889px;stroke-linecap:butt;stroke-linejoin:miter;stroke-opacity:1" />
      <g
         transform="translate(270.47617,1.2100618)"
         id="text3582-5-1-9-9-2-3"
         style="font-size:12.92339039px;fill:none;stroke:#000000;stroke-width:1.07694912;stroke-miterlimit:4;font-family:TimesNewRomanPSMT">
        <path
           inkscape:connector-curvature="0"
           id="path4249"
           style="fill:#000000;stroke:none;font-family:SymbolMT"
           d="m 689.35745,301.38833 0,5.78019 -1.13584,0 0,-5.78019 -1.76687,0 0,-0.9213 8.35477,0 0,0.9213 -1.52708,0 0,5.78019 -1.13585,0 0,-5.78019 z" />
      </g>
      <path
         style="font-size:12px;fill:#000000;fill-rule:nonzero;stroke:#000000;stroke-width:0.8077119;stroke-miterlimit:4;font-family:TimesNewRomanPSMT"
         d="m 957.32248,310.00296 h 6.10415"
         id="path3586-5-2-4-1-1-1"
         inkscape:connector-curvature="0" />
      <g
         transform="translate(270.47617,1.2100618)"
         id="text3588-4-6-5-9-5-0"
         style="font-size:12.92339039px;fill:none;stroke:#000000;stroke-width:1.07694912;stroke-miterlimit:4;font-family:TimesNewRomanPSMT">
        <path
           inkscape:connector-curvature="0"
           id="path4246"
           style="font-size:10.76949215px;fill:#000000;stroke:none"
           d="m 692.989,316.13223 0,0.90973 -5.09553,0 c -0.007,-0.22787 0.0298,-0.44697 0.11043,-0.65732 0.12971,-0.34706 0.33743,-0.68886 0.62314,-1.02541 0.28571,-0.33655 0.69851,-0.72568 1.23839,-1.1674 0.83785,-0.68711 1.40402,-1.23137 1.69851,-1.63277 0.29447,-0.4014 0.44171,-0.78089 0.44171,-1.13848 0,-0.3751 -0.13409,-0.69149 -0.40228,-0.94917 -0.26819,-0.25766 -0.61788,-0.38649 -1.04907,-0.3865 -0.45575,1e-5 -0.82034,0.13673 -1.09378,0.41017 -0.27345,0.27345 -0.41192,0.65206 -0.41543,1.13584 l -0.97283,-0.0999 c 0.0666,-0.72567 0.31727,-1.27869 0.75198,-1.65907 0.4347,-0.38036 1.0184,-0.57054 1.75109,-0.57055 0.7397,10e-6 1.32515,0.20509 1.75635,0.61525 0.4312,0.41017 0.6468,0.9185 0.6468,1.52498 0,0.3085 -0.0631,0.61174 -0.1893,0.90972 -0.12621,0.29799 -0.33568,0.61175 -0.6284,0.94128 -0.29273,0.32954 -0.77914,0.78177 -1.45925,1.35671 -0.56792,0.47677 -0.93251,0.80017 -1.09377,0.9702 -0.16127,0.17002 -0.29448,0.34093 -0.39965,0.5127 z" />
      </g>
      <g
         transform="translate(270.47617,1.2100618)"
         id="text10674-0-1"
         style="font-size:14.08065414px;font-style:normal;font-variant:normal;font-weight:normal;font-stretch:normal;text-align:start;line-height:125%;letter-spacing:0px;word-spacing:0px;writing-mode:lr-tb;text-anchor:start;fill:#000000;fill-opacity:1;stroke:none;font-family:Arial;-inkscape-font-specification:Arial">
        <path
           inkscape:connector-curvature="0"
           id="path4243"
           d="m 606.10926,330.8624 3.8708,-10.07922 1.43694,0 4.1252,10.07922 -1.51945,0 -1.17568,-3.05265 -4.21457,0 -1.10693,3.05265 z m 2.90826,-4.13895 3.41703,0 -1.05192,-2.79138 c -0.32086,-0.84794 -0.5592,-1.54464 -0.71504,-2.09009 -0.12834,0.64629 -0.30939,1.28798 -0.54315,1.92509 z" />
      </g>
      <g
         transform="translate(270.47617,1.2100618)"
         id="text10678-5-3"
         style="font-size:14.08065414px;font-style:normal;font-variant:normal;font-weight:normal;font-stretch:normal;text-align:start;line-height:125%;letter-spacing:0px;word-spacing:0px;writing-mode:lr-tb;text-anchor:start;fill:#000000;fill-opacity:1;stroke:none;font-family:Arial;-inkscape-font-specification:Arial">
        <path
           inkscape:connector-curvature="0"
           id="path4240"
           d="m 674.86217,227.84235 0,-10.07922 3.78143,0 c 0.77003,1e-5 1.38766,0.10199 1.85289,0.30595 0.46523,0.20398 0.82962,0.51795 1.09318,0.94192 0.26355,0.42398 0.39532,0.86744 0.39533,1.33037 -10e-6,0.43086 -0.11689,0.83651 -0.35064,1.21693 -0.23377,0.38044 -0.5867,0.68754 -1.0588,0.9213 0.6096,0.17876 1.07827,0.48357 1.406,0.91441 0.32772,0.43086 0.49158,0.93964 0.49159,1.52633 -1e-5,0.4721 -0.0997,0.91098 -0.29908,1.31662 -0.19939,0.40564 -0.44576,0.71847 -0.7391,0.93848 -0.29335,0.22001 -0.66118,0.38616 -1.10348,0.49846 -0.44232,0.1123 -0.98433,0.16845 -1.62602,0.16845 z m 1.33381,-5.84403 2.17948,0 c 0.59127,1e-5 1.01525,-0.0389 1.27193,-0.11688 0.33918,-0.10083 0.59471,-0.26813 0.7666,-0.50189 0.17188,-0.23376 0.25782,-0.5271 0.25782,-0.88004 0,-0.3346 -0.0802,-0.62909 -0.24063,-0.88348 -0.16043,-0.25438 -0.38961,-0.42856 -0.68753,-0.52253 -0.29794,-0.094 -0.809,-0.14093 -1.5332,-0.14094 l -2.01447,0 z m 0,4.6546 2.50949,0 c 0.43085,0 0.73336,-0.0161 0.90755,-0.0481 0.30709,-0.055 0.56377,-0.14667 0.77003,-0.27501 0.20625,-0.12834 0.37584,-0.31512 0.50877,-0.56034 0.13292,-0.24522 0.19938,-0.52825 0.19939,-0.8491 -1e-5,-0.37585 -0.0963,-0.70243 -0.28876,-0.97974 -0.19252,-0.2773 -0.45951,-0.4721 -0.80098,-0.5844 -0.34148,-0.11229 -0.83306,-0.16844 -1.47476,-0.16845 l -2.33073,0 z" />
      </g>
      <g
         transform="translate(270.47617,1.2100618)"
         id="text10682-0-0"
         style="font-size:14.08065414px;font-style:normal;font-variant:normal;font-weight:normal;font-stretch:normal;text-align:start;line-height:125%;letter-spacing:0px;word-spacing:0px;writing-mode:lr-tb;text-anchor:start;fill:#000000;fill-opacity:1;stroke:none;font-family:Arial;-inkscape-font-specification:Arial">
        <path
           inkscape:connector-curvature="0"
           id="path4237"
           d="m 713.38598,327.6231 1.33381,0.33689 c -0.27961,1.09547 -0.78265,1.93082 -1.50913,2.50605 -0.7265,0.57524 -1.61456,0.86286 -2.66419,0.86286 -1.0863,0 -1.96978,-0.22116 -2.65043,-0.66347 -0.68066,-0.44231 -1.1986,-1.08286 -1.55383,-1.92165 -0.35522,-0.83879 -0.53283,-1.73946 -0.53283,-2.702 0,-1.04963 0.20053,-1.96519 0.60159,-2.74669 0.40105,-0.78149 0.97171,-1.37506 1.71195,-1.78071 0.74024,-0.40564 1.55496,-0.60846 2.44418,-0.60847 1.00837,10e-6 1.85633,0.25669 2.54387,0.77004 0.68752,0.51336 1.1665,1.23527 1.43694,2.16572 l -1.31319,0.30939 c -0.23377,-0.73336 -0.57295,-1.26734 -1.01755,-1.60195 -0.44461,-0.33459 -1.0038,-0.50189 -1.67757,-0.5019 -0.77463,10e-6 -1.42205,0.18565 -1.94228,0.55691 -0.52024,0.37127 -0.88578,0.86973 -1.09662,1.49538 -0.21084,0.62566 -0.31626,1.27079 -0.31626,1.9354 0,0.85713 0.1249,1.60539 0.3747,2.24479 0.24981,0.63941 0.63826,1.11724 1.16537,1.43351 0.5271,0.31626 1.09776,0.47439 1.71196,0.47439 0.74711,0 1.37964,-0.21542 1.89758,-0.64628 0.51794,-0.43085 0.86858,-1.07025 1.05193,-1.91821 z" />
      </g>
      <g
         transform="translate(270.47617,1.2100618)"
         id="text10654-1-6"
         style="font-size:14.08065414px;font-style:normal;font-variant:normal;font-weight:normal;font-stretch:normal;text-align:start;line-height:125%;letter-spacing:0px;word-spacing:0px;writing-mode:lr-tb;text-anchor:start;fill:#000000;fill-opacity:1;stroke:none;font-family:Arial;-inkscape-font-specification:Arial">
        <path
           inkscape:connector-curvature="0"
           id="path4234"
           d="m 705.14735,274.00989 c -0.45836,0.3896 -0.89952,0.66461 -1.32349,0.82503 -0.42399,0.16043 -0.8789,0.24064 -1.36476,0.24064 -0.80212,0 -1.4186,-0.19595 -1.84946,-0.58784 -0.43085,-0.39189 -0.64628,-0.89264 -0.64628,-1.50226 0,-0.35751 0.0814,-0.68409 0.24408,-0.97973 0.16271,-0.29564 0.37585,-0.53283 0.6394,-0.7116 0.26355,-0.17875 0.56034,-0.31396 0.89036,-0.40564 0.24292,-0.0642 0.6096,-0.12604 1.10005,-0.18563 0.99921,-0.11917 1.73486,-0.26126 2.20697,-0.42627 0.005,-0.16959 0.007,-0.2773 0.007,-0.32314 -10e-6,-0.50419 -0.11689,-0.85941 -0.35064,-1.06568 -0.31627,-0.27959 -0.78608,-0.41938 -1.40944,-0.41939 -0.58212,10e-6 -1.01182,0.10199 -1.28912,0.30595 -0.27731,0.20397 -0.48242,0.56493 -0.61535,1.08286 l -1.21005,-0.165 c 0.11,-0.51794 0.29105,-0.93619 0.54315,-1.25475 0.25209,-0.31855 0.61648,-0.56377 1.09317,-0.73566 0.47669,-0.17188 1.02901,-0.25782 1.65696,-0.25782 0.62335,0 1.12984,0.0733 1.51944,0.22001 0.3896,0.14668 0.67607,0.33116 0.85942,0.55346 0.18333,0.22231 0.31167,0.50305 0.38501,0.84223 0.0412,0.21084 0.0619,0.59128 0.0619,1.1413 l 0,1.65008 c 0,1.15047 0.0263,1.87811 0.0791,2.18291 0.0527,0.30481 0.15698,0.59701 0.31283,0.8766 l -1.29256,0 c -0.12835,-0.25668 -0.21085,-0.5569 -0.24752,-0.90066 z m -0.10313,-2.76388 c -0.44919,0.18334 -1.12297,0.33918 -2.02134,0.46752 -0.50878,0.0733 -0.86858,0.15584 -1.07942,0.24751 -0.21085,0.0917 -0.37357,0.22574 -0.48815,0.40221 -0.11459,0.17647 -0.17189,0.37241 -0.17189,0.58784 0,0.33001 0.1249,0.60503 0.37471,0.82504 0.2498,0.22001 0.61534,0.33001 1.09661,0.33001 0.47669,0 0.90067,-0.10427 1.27194,-0.31283 0.37126,-0.20855 0.64398,-0.49387 0.81816,-0.85597 0.13292,-0.2796 0.19938,-0.69212 0.19938,-1.23756 z" />
      </g>
      <g
         transform="translate(270.47617,1.2100618)"
         id="text10650-0-0"
         style="font-size:14.08065414px;font-style:normal;font-variant:normal;font-weight:normal;font-stretch:normal;text-align:start;line-height:125%;letter-spacing:0px;word-spacing:0px;writing-mode:lr-tb;text-anchor:start;fill:#000000;fill-opacity:1;stroke:none;font-family:Arial;-inkscape-font-specification:Arial">
        <path
           inkscape:connector-curvature="0"
           id="path4231"
           d="m 660.55134,333.53833 -1.14817,0 0,-10.07922 1.23755,0 0,3.59579 c 0.52252,-0.65544 1.18943,-0.98316 2.00072,-0.98317 0.44918,10e-6 0.87431,0.0905 1.27537,0.27158 0.40106,0.18106 0.73107,0.43544 0.99005,0.76316 0.25896,0.32773 0.46178,0.72306 0.60846,1.18599 0.14667,0.46294 0.22001,0.95797 0.22001,1.48507 0,1.25131 -0.30939,2.21844 -0.92816,2.90139 -0.61879,0.68294 -1.36132,1.02442 -2.22761,1.02442 -0.86171,0 -1.53778,-0.35981 -2.02822,-1.07943 z m -0.0137,-3.7058 c 0,0.87546 0.11917,1.50799 0.35752,1.89759 0.3896,0.63712 0.91671,0.95567 1.58132,0.95567 0.54086,0 1.00838,-0.23491 1.40257,-0.70472 0.39418,-0.46981 0.59127,-1.16995 0.59128,-2.10041 -10e-6,-0.95337 -0.18908,-1.65695 -0.56722,-2.11072 -0.37815,-0.45377 -0.83535,-0.68065 -1.37162,-0.68066 -0.54087,1e-5 -1.00839,0.23491 -1.40257,0.70472 -0.39419,0.46982 -0.59128,1.14933 -0.59128,2.03853 z" />
      </g>
      <g
         transform="translate(270.47617,1.2100618)"
         id="text10662-8-8"
         style="font-size:14.08065414px;font-style:normal;font-variant:normal;font-weight:normal;font-stretch:normal;text-align:start;line-height:125%;letter-spacing:0px;word-spacing:0px;writing-mode:lr-tb;text-anchor:start;fill:#000000;fill-opacity:1;stroke:none;font-family:Arial;-inkscape-font-specification:Arial">
        <path
           inkscape:connector-curvature="0"
           id="path4228"
           d="m 625.95589,268.23825 1.21693,0.15813 c -0.13293,0.83879 -0.47326,1.49539 -1.02099,1.96978 -0.54774,0.4744 -1.22037,0.7116 -2.0179,0.7116 -0.99922,0 -1.80248,-0.32658 -2.4098,-0.97974 -0.60732,-0.65315 -0.91098,-1.58934 -0.91098,-2.80856 0,-0.78837 0.13063,-1.47819 0.39189,-2.06947 0.26126,-0.59128 0.65888,-1.03473 1.19287,-1.33038 0.53398,-0.29563 1.11494,-0.44345 1.74289,-0.44346 0.79295,1e-5 1.44152,0.20054 1.94572,0.60159 0.50418,0.40107 0.82732,0.97058 0.96942,1.70852 l -1.20318,0.18563 c -0.1146,-0.49043 -0.31742,-0.8594 -0.60847,-1.10692 -0.29106,-0.24751 -0.64285,-0.37126 -1.05536,-0.37127 -0.62337,10e-6 -1.12985,0.22345 -1.51945,0.67034 -0.3896,0.44691 -0.5844,1.15392 -0.5844,2.12104 0,0.98088 0.18793,1.69362 0.56378,2.13822 0.37585,0.44461 0.86629,0.66691 1.47132,0.66691 0.48585,0 0.89149,-0.14896 1.21693,-0.4469 0.32542,-0.29792 0.53168,-0.75628 0.61878,-1.37506 z" />
      </g>
    </g>
  </g>
</svg>
